<svg width="62" height="62" xmlns="http://www.w3.org/2000/svg" xmlns:xlink="http://www.w3.org/1999/xlink" xml:space="preserve" overflow="hidden"><g transform="translate(-584 -112)"><path d="M587.875 127.5 593.042 127.5 593.042 158.5 587.875 158.5Z"/><path d="M605.958 127.5 611.125 127.5 611.125 158.5 605.958 158.5Z"/><path d="M595.625 127.5 598.208 127.5 598.208 158.5 595.625 158.5Z"/><path d="M600.792 127.5 603.375 127.5 603.375 158.5 600.792 158.5Z"/><path d="M613.708 127.5 618.875 127.5 618.875 158.5 613.708 158.5Z"/><path d="M631.792 127.5 636.958 127.5 636.958 158.5 631.792 158.5Z"/><path d="M621.458 127.5 624.042 127.5 624.042 158.5 621.458 158.5Z"/><path d="M626.625 127.5 629.208 127.5 629.208 158.5 626.625 158.5Z"/><path d="M639.542 127.5 642.125 127.5 642.125 158.5 639.542 158.5Z"/></g></svg>