<svg width="62" height="62" xmlns="http://www.w3.org/2000/svg" xmlns:xlink="http://www.w3.org/1999/xlink" xml:space="preserve" overflow="hidden"><g transform="translate(-175 -110)"><path d="M207.292 129.375 204.708 129.375C203.288 129.375 202.125 128.212 202.125 126.792L202.125 121.625C202.125 120.204 203.288 119.042 204.708 119.042L207.292 119.042C208.712 119.042 209.875 120.204 209.875 121.625L209.875 126.792C209.875 128.212 208.712 129.375 207.292 129.375Z"/><path d="M226.667 142.292 211.167 142.292 211.167 139.708 226.667 139.708 226.667 142.292ZM226.667 150.042 211.167 150.042 211.167 147.458 226.667 147.458 226.667 150.042ZM226.667 157.792 211.167 157.792 211.167 155.208 226.667 155.208 226.667 157.792ZM206 157.792 185.333 157.792 185.333 152.625C185.333 151.85 185.721 151.075 186.367 150.558 187.788 149.525 189.596 148.621 191.404 148.104 192.825 147.717 194.246 147.458 195.667 147.458 197.217 147.458 198.637 147.717 199.929 148.104 201.738 148.621 203.546 149.396 204.967 150.558 205.613 151.075 206 151.85 206 152.625L206 157.792ZM195.667 135.833C198.508 135.833 200.833 138.158 200.833 141 200.833 143.842 198.508 146.167 195.667 146.167 192.825 146.167 190.5 143.842 190.5 141 190.5 138.158 192.825 135.833 195.667 135.833ZM229.25 126.792 212.458 126.792C212.458 129.633 210.133 131.958 207.292 131.958L204.708 131.958C201.867 131.958 199.542 129.633 199.542 126.792L182.75 126.792C181.329 126.792 180.167 127.954 180.167 129.375L180.167 160.375C180.167 161.796 181.329 162.958 182.75 162.958L229.25 162.958C230.671 162.958 231.833 161.796 231.833 160.375L231.833 129.375C231.833 127.954 230.671 126.792 229.25 126.792Z"/></g></svg>